<svg xmlns="http://www.w3.org/2000/svg" version="1.1" xmlns:xlink="http://www.w3.org/1999/xlink" width="1000" height="1000" viewBox="0 0 1000 1000"><svg xml:space="preserve" width="1000" height="1000" data-version="2" data-id="lg_7yulzbxJ57ytBujJjC" viewBox="0 0 270 270" x="0" y="0">
    <g transform="matrix(1 0 0 1 135 135)">
        <linearGradient id="a" x1="0" x2="1" y1="0" y2="0" gradientUnits="objectBoundingBox">
            <stop offset="0%" stop-color="#7c3aed"></stop>
            <stop offset="100%" stop-color="#2563eb"></stop>
        </linearGradient>
        <circle r="132.644" fill="url(#a)"></circle>
    </g>
    <path fill="#FFF" d="M175.436 56.744h9.956l1.732.289 1.443.721 1.443 1.299 1.01 1.443.433 1.299.144 1.01v147.33l-.288 1.587-1.01 2.02-1.3 1.3-1.73.865-1.01.289-1.155.144h-9.524l-1.876-.433-1.443-.721-1.299-1.155-.865-1.443-.578-1.587-.144-.866-.144-16.161V75.936l.144-13.42.577-1.876 1.01-1.587 1.3-1.154 1.73-.866zm-71.123 2.165h1.588l2.164.432 2.02 1.01 1.443 1.155v.289h.29l1.875 2.453 1.732 2.453 1.298 1.731 1.876 2.598 1.587 2.453 2.165 3.463 1.732 2.742 1.298 2.309 1.732 3.319 1.731 3.174 1.732 3.608 1.732 3.896 1.731 4.473 2.598 7.792 1.298 5.34 1.01 4.328.866 5.195.433 3.752.289 4.473.144 3.608v3.896l-.433 7.503-.721 5.484-.866 4.617-1.587 6.782-1.443 4.762-2.165 6.35-1.876 4.473-2.02 4.329-1.732 3.463-1.731 3.175-1.443 2.741-2.02 3.175-2.165 3.463-1.732 2.742-1.443 1.876-1.731 2.453-2.02 2.742-1.3 1.731-.865 1.01-1.443 1.155-2.164 1.01-1.588.288h-1.731l-1.732-.288-2.453-1.155-1.587-1.298-.866-1.155-1.01-2.02-.433-1.587v-3.03l.577-1.876 1.155-2.02 1.587-2.31 2.164-2.885 1.732-2.453 1.443-2.165 2.02-3.319 1.299-2.02 1.299-2.309 1.875-3.463 2.165-4.185 2.164-4.906 1.3-3.463 1.73-5.05 1.01-3.464 1.444-6.205.866-5.627.288-3.608.145-2.597v-6.927l-.433-5.627-.722-4.762-.866-4.04-1.443-5.773-2.597-7.503-1.443-3.464-2.165-4.761-2.164-4.04-2.02-3.753-2.02-3.174-1.732-2.742-2.02-3.03-2.02-2.742-1.732-2.453-1.299-1.876-.866-1.443-.721-2.165v-3.318l.721-2.165 1.3-2.02 1.442-1.299 1.443-.866 2.02-.721zM66.808 91.087h1.443l1.876.577 1.732 1.01 1.298 1.444 2.02 3.174 2.165 3.463 2.453 4.762 1.876 3.896 1.732 4.474 1.298 3.896.866 3.174 1.01 5.195.433 2.886.289 3.175.144 2.886v4.04l-.433 5.195L86 150.25l-1.299 5.195-1.298 3.896-1.876 4.618-1.443 3.174-1.443 2.742-1.732 3.175-2.164 3.463-1.732 2.597-1.154 1.299-2.02 1.154-1.444.433h-1.587l-1.299-.288-1.731-.866-1.443-1.299-.866-1.443-.577-1.876v-2.02l.721-1.876 1.299-2.309 1.732-2.741 1.587-2.742 2.453-4.762 1.587-3.896 1.01-2.742 1.155-3.896.866-4.185.577-4.617.144-2.597v-2.598l-.288-4.329-.722-4.329-.866-3.752-1.154-3.751-1.732-4.474-2.309-4.762-2.164-3.896-1.443-2.164-1.299-2.165-.866-2.02-.288-1.154v-1.732l.721-2.02 1.155-1.588 1.443-1.154 1.876-.721z"></path>
</svg></svg>