<svg xmlns="http://www.w3.org/2000/svg" version="1.1" xmlns:xlink="http://www.w3.org/1999/xlink" width="300" height="110" viewBox="0 0 300 110"><svg xml:space="preserve" width="300" height="110" data-version="2" data-id="lg_YKde3nxXvsrjkpwMKi" viewBox="0 0 768 275" x="0" y="0">
    <path fill="#FFF" d="M324.346 132.8V27.33h32.45l47.24 94.26-7.03.44v-94.7h21.61V132.8h-31.64l-48.42-94.78 7.4-.51v95.29Z"></path>
    <rect width="94.27" height="105.47" x="-47.135" y="-52.735" fill="none" rx="0" ry="0" transform="matrix(1 0 0 1 371.981 80.564)"></rect>
    <path fill="#FFF" d="M471.346 134.7q-11.93 0-21.05-5.27-9.12-5.28-14.25-14.61-5.13-9.34-5.13-21.57 0-12.31 5.13-21.65 5.13-9.34 14.25-14.57 9.12-5.24 21.05-5.24 12.02 0 21.13 5.24 9.12 5.23 14.25 14.57 5.13 9.34 5.13 21.65 0 12.3-5.13 21.64t-14.28 14.57q-9.16 5.24-21.1 5.24m.08-16.04q8.13 0 12.85-6.85 4.73-6.85 4.73-18.56 0-11.8-4.73-18.61-4.72-6.81-12.93-6.81-8.13 0-12.85 6.81-4.72 6.81-4.72 18.61 0 11.79 4.72 18.6 4.72 6.81 12.93 6.81"></path>
    <rect width="80.94" height="82.91" x="-40.47" y="-41.455" fill="none" rx="0" ry="0" transform="matrix(1 0 0 1 471.886 93.744)"></rect>
    <path fill="#22AF77" d="M370.636 266.91q-15.74 0-27.35-6.81-11.61-6.81-17.95-19.15-6.33-12.35-6.33-28.9 0-16.33 6.22-28.56 6.23-12.23 17.8-19.05 11.57-6.81 27.54-6.81 17.94 0 30.5 8.98 12.57 8.97 16.52 25.96l-23 5.35q-2.19-10.62-8.53-15.9-6.34-5.27-15.56-5.27-8.87 0-15.06 4.39-6.18 4.4-9.44 12.35-3.26 7.94-3.26 18.78t3.29 18.86q3.3 8.02 9.45 12.38 6.15 4.36 14.72 4.36 9.23 0 15.53-5.28 6.3-5.27 8.57-14.86l23.51 4.76q-4.25 16.55-16.77 25.48-12.53 8.94-30.4 8.94"></path>
    <rect width="98.8" height="109.28" x="-49.4" y="-54.64" fill="none" rx="0" ry="0" transform="matrix(1 0 0 1 368.906 212.77)"></rect>
    <path fill="#22AF77" d="M428.946 265.01V155.14h21.82v49.29l-1.24-3.22q3.51-8.13 10.14-12.67 6.63-4.54 16-4.54 9.23 0 15.09 4.17 5.86 4.18 8.72 11.58 2.86 7.39 2.86 17.06v48.2h-21.83v-45.63q0-9.75-2.56-14.32-2.57-4.58-9.67-4.58-8.57 0-13.04 6.52-4.47 6.52-4.47 19.55v38.46Z"></path>
    <rect width="73.39" height="109.87" x="-36.695" y="-54.935" fill="none" rx="0" ry="0" transform="matrix(1 0 0 1 466.141 210.574)"></rect>
    <path fill="#22AF77" d="M540.786 266.91q-7.54 0-13.92-2.67-6.37-2.68-10.21-7.95-3.85-5.27-3.85-13.18 0-8.5 4.91-14.43t14.28-9.05q9.38-3.11 22.63-3.11h11.14l-1.32 1.98v-4.54q0-7.84-2.86-11.69-2.86-3.84-9.45-3.84-6.3 0-9.63 3.33-3.33 3.33-4.06 9.49l-22.27-3.81q1.25-6.59 5.68-11.9 4.43-5.31 12.27-8.46 7.83-3.15 19.26-3.15 10.47 0 17.72 3.33 7.25 3.33 11.03 10.8 3.77 7.47 3.77 20v26.88q0 2.49.69 3.29.7.81 2.97.81h3.59v15.97h-10.4q-8.57 0-13-4.29-4.43-4.28-4.43-12.34v-3.74l3.8 1.47q-.95 3.15-2.78 6.74-1.83 3.59-5.09 6.77-3.26 3.19-8.24 5.24-4.98 2.05-12.23 2.05m6.3-14.94q5.13 0 9.08-2.34 3.96-2.35 6.23-7.07 2.27-4.73 2.27-11.76v-1.68h-9.23q-7.84 0-12.2 2.05-4.35 2.05-6.11 5.02-1.76 2.96-1.76 5.74 0 2.2 1.06 4.55 1.06 2.34 3.59 3.91 2.53 1.58 7.07 1.58"></path>
    <rect width="80.35" height="82.98" x="-40.175" y="-41.49" fill="none" rx="0" ry="0" transform="matrix(1 0 0 1 553.481 225.92)"></rect>
    <path fill="#22AF77" d="M640.256 266.91q-11.94 0-21.06-5.27-9.12-5.28-14.25-14.61-5.12-9.34-5.12-21.57 0-12.31 5.12-21.65 5.13-9.34 14.25-14.57 9.12-5.24 21.06-5.24 12.01 0 21.13 5.24 9.12 5.23 14.24 14.57 5.13 9.34 5.13 21.65 0 12.3-5.13 21.64-5.12 9.34-14.28 14.57-9.16 5.24-21.09 5.24m.07-16.04q8.13 0 12.85-6.85 4.73-6.85 4.73-18.56 0-11.8-4.73-18.61-4.72-6.81-12.92-6.81-8.13 0-12.86 6.81-4.72 6.81-4.72 18.61 0 11.79 4.72 18.6 4.73 6.81 12.93 6.81"></path>
    <rect width="80.93" height="82.91" x="-40.465" y="-41.455" fill="none" rx="0" ry="0" transform="matrix(1 0 0 1 640.791 225.954)"></rect>
    <path fill="#22AF77" d="M724.406 266.91q-8.93 0-16.84-2.6t-13.33-8.09q-5.42-5.5-6.89-14.29l19.93-3.95q.65 6.66 4.72 10.07 4.06 3.41 11.61 3.41 7.25 0 10.77-2.9 3.51-2.89 3.51-6.77 0-3.44-2.75-5.93-2.74-2.49-9.48-3.52l-7.18-1.17q-4.25-.66-9.04-1.8-4.8-1.13-9.05-3.44-4.25-2.31-6.96-6.41t-2.71-10.54q0-7.84 4.21-13.44 4.22-5.61 11.69-8.57 7.47-2.97 17.06-2.97 8.86 0 16.19 2.6 7.32 2.6 12.27 7.62 4.94 5.01 6.41 12.41l-19.93 4.1q-.51-3-1.94-5.64-1.43-2.63-4.36-4.28-2.93-1.65-7.91-1.65-5.64 0-8.97 2.2-3.33 2.2-3.33 6 0 2.79 1.87 4.55 1.86 1.75 5.12 2.82 3.26 1.06 7.36 1.79l8.21 1.39q6.3 1.03 11.97 3.55 5.68 2.53 9.27 7.22 3.59 4.69 3.59 12.3 0 8.43-4.58 14.21-4.58 5.79-12.52 8.75-7.95 2.97-17.99 2.97"></path>
    <rect width="72.15" height="82.91" x="-36.075" y="-41.455" fill="none" rx="0" ry="0" transform="matrix(1 0 0 1 723.921 225.954)"></rect>
    <path fill="#22AF77" d="M147.7 272.715c-71.811 0-130.232-58.423-130.232-130.23 0-71.812 58.42-130.232 130.233-130.232 71.81 0 130.23 58.423 130.23 130.232 0 71.807-58.423 130.23-130.23 130.23m0-250.061c-66.076 0-119.832 53.755-119.832 119.831s53.756 119.829 119.832 119.829S267.53 208.558 267.53 142.485 213.774 22.654 147.7 22.654"></path>
    <circle r="10.431" fill="#C6E2D7" transform="matrix(.9556 0 0 .9556 59.06 12.254)"></circle>
    <circle r="10.431" fill="#C6E2D7" transform="matrix(.9556 0 0 .9556 17.47 221.827)"></circle>
    <circle r="10.431" fill="#C6E2D7" transform="matrix(.9556 0 0 .9556 267.961 251.73)"></circle>
    <g fill="#1A84FF" paint-order="stroke">
        <circle r="30.167" transform="matrix(.289 0 0 .289 146.853 142.34)"></circle>
        <circle r="27.973" transform="matrix(.289 0 0 .289 146.874 142.34)"></circle>
    </g>
    <path fill="#1A84FF" d="M146.998 253.478c-61.145 0-110.995-49.85-110.995-110.994 0-61.145 49.85-110.995 110.995-110.995 61.144 0 110.994 49.85 110.994 110.995 0 61.144-49.85 110.994-110.994 110.994m0-214.2c-56.86 0-103.206 46.345-103.206 103.206 0 56.86 46.345 103.205 103.206 103.205 56.86 0 103.205-46.345 103.205-103.205S203.858 39.278 146.998 39.278"></path>
    <circle r="10.431" fill="#C6E2D7" transform="matrix(.9556 0 0 .9556 267.961 37.56)"></circle>
</svg></svg>